<svg width="23.671875" height="29.000000" viewBox="0 0 23.6719 29" fill="none" xmlns="http://www.w3.org/2000/svg" xmlns:xlink="http://www.w3.org/1999/xlink">
	<desc>
			Created with Pixso.
	</desc>
	<defs/>
	<path id="Vector" d="M11.83 29C13.55 29 14.95 27.66 14.95 26.02L8.71 26.02C8.71 26.81 9.04 27.57 9.63 28.12C10.21 28.68 11 29 11.83 29ZM21.19 20.07L21.19 12.64C21.19 8.07 18.64 4.25 14.17 3.24L14.17 2.23C14.17 0.99 13.13 0 11.83 0C10.54 0 9.49 0.99 9.49 2.23L9.49 3.24C5.01 4.25 2.47 8.06 2.47 12.64L2.47 20.07L0.46 21.99C-0.52 22.93 0.16 24.53 1.55 24.53L22.1 24.53C23.49 24.53 24.19 22.93 23.21 21.99L21.19 20.07Z" fill="#E1E1E1" fill-opacity="1.000000" fill-rule="nonzero"/>
</svg>
