<svg width="18.000000" height="21.497559" viewBox="0 0 18 21.4976" fill="none" xmlns="http://www.w3.org/2000/svg" xmlns:xlink="http://www.w3.org/1999/xlink">
	<desc>
			Created with Pixso.
	</desc>
	<defs/>
	<path id="Vector" d="M9.67 5.37C10.38 5.13 10.9 4.47 10.98 3.73C11.02 3.26 10.92 2.82 10.69 2.46L9.41 0.24C9.23 -0.09 8.75 -0.09 8.55 0.24L7.26 2.46C7.09 2.76 7 3.11 7 3.49C7 4.81 8.3 5.84 9.67 5.37ZM13.52 15.41L12.52 14.41L11.44 15.48C10.15 16.78 7.86 16.79 6.56 15.48L5.49 14.41L4.4 15.48C3.75 16.13 2.88 16.49 1.96 16.49C1.23 16.49 0.56 16.26 0 15.88L0 19.49C0 20.59 0.9 21.49 2 21.49L16 21.49C17.09 21.49 18 20.59 18 19.49L18 15.88C17.25 16.39 16.28 16.63 15.25 16.4C14.59 16.26 14 15.89 13.52 15.41ZM15 8.49L10 8.49L10 7.49C10 6.94 9.55 6.49 9 6.49C8.44 6.49 8 6.94 8 7.49L8 8.49L3 8.49C1.33 8.49 0 9.83 0 11.49L0 12.95C0 13.8 0.5 14.62 1.31 14.89C2.03 15.13 2.83 14.95 3.33 14.43L5.48 12.3L7.6 14.43C8.36 15.19 9.61 15.19 10.38 14.43L12.51 12.3L14.65 14.43C15.08 14.86 15.67 15.06 16.3 14.98C17.28 14.85 17.99 13.92 17.99 12.92L17.99 11.5C18 9.83 16.66 8.49 15 8.49Z" fill="#545454" fill-opacity="1.000000" fill-rule="nonzero"/>
</svg>
