<svg width="29.000000" height="29.000000" viewBox="0 0 29 29" fill="none" xmlns="http://www.w3.org/2000/svg" xmlns:xlink="http://www.w3.org/1999/xlink">
	<desc>
			Created with Pixso.
	</desc>
	<defs/>
	<path id="Vector" d="M14.5 0C6.49 0 0 6.49 0 14.5C0 22.5 6.49 29 14.5 29C22.5 29 29 22.5 29 14.5C29 6.49 22.5 0 14.5 0ZM14.5 21.75C13.7 21.75 13.05 21.09 13.05 20.29L13.05 14.5C13.05 13.7 13.7 13.04 14.5 13.04C15.29 13.04 15.94 13.7 15.94 14.5L15.94 20.29C15.94 21.09 15.29 21.75 14.5 21.75ZM15.94 10.14L13.05 10.14L13.05 7.25L15.94 7.25L15.94 10.14Z" fill="#E1E1E1" fill-opacity="1.000000" fill-rule="nonzero"/>
</svg>
