<svg width="12.886719" height="14.459961" viewBox="0 0 12.8867 14.46" fill="none" xmlns="http://www.w3.org/2000/svg" xmlns:xlink="http://www.w3.org/1999/xlink">
	<desc>
			Created with Pixso.
	</desc>
	<defs>
		<filter id="filter_2711_73703_dd" x="0.000000" y="0.000000" width="12.886719" height="14.459961" filterUnits="userSpaceOnUse" color-interpolation-filters="sRGB">
			<feFlood flood-opacity="0" result="BackgroundImageFix"/>
			<feColorMatrix in="SourceAlpha" type="matrix" values="0 0 0 0 0 0 0 0 0 0 0 0 0 0 0 0 0 0 127 0" result="hardAlpha"/>
			<feOffset dx="0" dy="1.40348"/>
			<feGaussianBlur stdDeviation="0.701742"/>
			<feComposite in2="hardAlpha" operator="out" k2="-1" k3="1"/>
			<feColorMatrix type="matrix" values="0 0 0 0 0.8 0 0 0 0 0.8 0 0 0 0 0.8 0 0 0 0.49 0"/>
			<feBlend mode="normal" in2="BackgroundImageFix" result="effect_dropShadow_1"/>
			<feBlend mode="normal" in="SourceGraphic" in2="effect_dropShadow_1" result="shape"/>
			<feColorMatrix in="SourceAlpha" type="matrix" values="0 0 0 0 0 0 0 0 0 0 0 0 0 0 0 0 0 0 127 0" result="hardAlpha"/>
			<feOffset dx="4.9122" dy="-1.40348"/>
			<feGaussianBlur stdDeviation="1.6374"/>
			<feComposite in2="hardAlpha" operator="arithmetic" k2="-1" k3="1"/>
			<feColorMatrix type="matrix" values="0 0 0 0 0.89412 0 0 0 0 0.88627 0 0 0 0 0.88627 0 0 0 0.25 0"/>
			<feBlend mode="normal" in2="shape" result="effect_innerShadow_2"/>
		</filter>
	</defs>
	<g filter="url(#filter_2711_73703_dd)">
		<path id="Vector" d="M2.86 9.76C2.71 9.76 2.56 9.71 2.44 9.63C2.31 9.55 2.22 9.43 2.16 9.29C2.1 9.15 2.09 9 2.11 8.85C2.14 8.71 2.22 8.57 2.32 8.47L9.44 1.35C9.5 1.27 9.58 1.21 9.68 1.16C9.77 1.11 9.88 1.08 9.98 1.08C10.08 1.07 10.19 1.09 10.29 1.13C10.39 1.16 10.48 1.22 10.55 1.29C10.63 1.37 10.68 1.46 10.72 1.55C10.76 1.65 10.78 1.76 10.77 1.86C10.77 1.97 10.75 2.07 10.7 2.16C10.65 2.26 10.59 2.34 10.5 2.41L3.39 9.54C3.32 9.61 3.24 9.66 3.15 9.7C3.05 9.74 2.96 9.76 2.86 9.76Z" fill="#009CCC" fill-opacity="1.000000" fill-rule="nonzero"/>
		<path id="Vector" d="M6.19 2.16C6.19 2.98 5.53 3.63 4.72 3.63C3.91 3.63 3.25 2.98 3.25 2.16C3.25 1.35 3.91 0.7 4.72 0.7C5.53 0.7 6.19 1.35 6.19 2.16Z" fill="#009CCC" fill-opacity="1.000000" fill-rule="evenodd"/>
		<path id="Vector" d="M9.57 9.39C9.57 10.25 8.87 10.95 8.01 10.95C7.15 10.95 6.46 10.25 6.46 9.39C6.46 8.53 7.15 7.83 8.01 7.83C8.87 7.83 9.57 8.53 9.57 9.39Z" fill="#009CCC" fill-opacity="1.000000" fill-rule="evenodd"/>
	</g>
</svg>
